<mxfile host="app.diagrams.net" modified="2024-09-05T11:16:20.261Z" agent="Mozilla/5.0 (Macintosh; Intel Mac OS X 10_15_7) AppleWebKit/537.36 (KHTML, like Gecko) Chrome/128.0.0.0 Safari/537.36" etag="YcrqYMHct76xBiJ6diD7" version="24.5.2" type="device">
  <diagram name="Page-1" id="zLwXRLV4x-U-mVlr1pWE">
    <mxGraphModel dx="1035" dy="625" grid="1" gridSize="10" guides="1" tooltips="1" connect="1" arrows="1" fold="1" page="1" pageScale="1" pageWidth="827" pageHeight="1169" math="0" shadow="0">
      <root>
        <mxCell id="0" />
        <mxCell id="1" parent="0" />
        <mxCell id="KM8NFA-T9ew2ubww94Zo-16" value="&lt;p style=&quot;margin:0px;margin-top:4px;text-align:center;&quot;&gt;&lt;b&gt;Movie&lt;/b&gt;&lt;/p&gt;&lt;hr size=&quot;1&quot; style=&quot;border-style:solid;&quot;&gt;&lt;p style=&quot;margin:0px;margin-left:4px;&quot;&gt;id&lt;/p&gt;&lt;p style=&quot;margin:0px;margin-left:4px;&quot;&gt;name&amp;nbsp;&lt;/p&gt;&lt;p style=&quot;margin:0px;margin-left:4px;&quot;&gt;duration&lt;/p&gt;&lt;p style=&quot;margin:0px;margin-left:4px;&quot;&gt;&lt;br&gt;&lt;/p&gt;&lt;hr size=&quot;1&quot; style=&quot;border-style:solid;&quot;&gt;&lt;p style=&quot;margin:0px;margin-left:4px;&quot;&gt;&lt;font style=&quot;font-size: 10px;&quot;&gt;// Getter setter&lt;/font&gt;&lt;/p&gt;" style="verticalAlign=top;align=left;overflow=fill;html=1;whiteSpace=wrap;" vertex="1" parent="1">
          <mxGeometry x="119" y="400" width="90" height="120" as="geometry" />
        </mxCell>
        <mxCell id="KM8NFA-T9ew2ubww94Zo-18" style="edgeStyle=orthogonalEdgeStyle;rounded=0;orthogonalLoop=1;jettySize=auto;html=1;exitX=0.5;exitY=0;exitDx=0;exitDy=0;entryX=0;entryY=0.547;entryDx=0;entryDy=0;entryPerimeter=0;" edge="1" parent="1" source="KM8NFA-T9ew2ubww94Zo-17" target="KM8NFA-T9ew2ubww94Zo-16">
          <mxGeometry relative="1" as="geometry">
            <mxPoint x="39" y="470" as="targetPoint" />
          </mxGeometry>
        </mxCell>
        <mxCell id="KM8NFA-T9ew2ubww94Zo-17" value="&lt;p style=&quot;margin:0px;margin-top:4px;text-align:center;&quot;&gt;&lt;b&gt;&lt;font style=&quot;font-size: 8px;&quot;&gt;MovieController&lt;/font&gt;&lt;/b&gt;&lt;/p&gt;&lt;hr size=&quot;1&quot; style=&quot;border-style:solid;&quot;&gt;&lt;p style=&quot;margin:0px;margin-left:4px;&quot;&gt;&lt;/p&gt;&lt;p style=&quot;margin:0px;margin-left:4px;&quot;&gt;&lt;font style=&quot;font-size: 8px;&quot;&gt;List&amp;lt;City, Movie&amp;gt; cityMovieMap&lt;/font&gt;&lt;/p&gt;&lt;p style=&quot;margin:0px;margin-left:4px;&quot;&gt;&lt;font style=&quot;font-size: 8px;&quot;&gt;List&amp;lt;Movie&amp;gt; movie&lt;/font&gt;&lt;/p&gt;&lt;p style=&quot;margin:0px;margin-left:4px;&quot;&gt;&lt;font style=&quot;font-size: 8px;&quot;&gt;// CRUD&lt;/font&gt;&lt;/p&gt;&lt;p style=&quot;margin:0px;margin-left:4px;&quot;&gt;&lt;br&gt;&lt;/p&gt;" style="verticalAlign=top;align=left;overflow=fill;html=1;whiteSpace=wrap;" vertex="1" parent="1">
          <mxGeometry x="19" y="550" width="100" height="90" as="geometry" />
        </mxCell>
        <mxCell id="KM8NFA-T9ew2ubww94Zo-23" style="edgeStyle=orthogonalEdgeStyle;rounded=0;orthogonalLoop=1;jettySize=auto;html=1;exitX=0.5;exitY=1;exitDx=0;exitDy=0;entryX=0.5;entryY=0;entryDx=0;entryDy=0;" edge="1" parent="1" source="KM8NFA-T9ew2ubww94Zo-19" target="KM8NFA-T9ew2ubww94Zo-21">
          <mxGeometry relative="1" as="geometry" />
        </mxCell>
        <mxCell id="KM8NFA-T9ew2ubww94Zo-19" value="&lt;p style=&quot;margin:0px;margin-top:4px;text-align:center;&quot;&gt;&lt;b&gt;Theater&lt;/b&gt;&lt;/p&gt;&lt;hr size=&quot;1&quot; style=&quot;border-style:solid;&quot;&gt;&lt;p style=&quot;margin:0px;margin-left:4px;&quot;&gt;&lt;font style=&quot;font-size: 10px;&quot;&gt;id&lt;/font&gt;&lt;/p&gt;&lt;p style=&quot;margin:0px;margin-left:4px;&quot;&gt;&lt;font style=&quot;font-size: 10px;&quot;&gt;name&lt;/font&gt;&lt;/p&gt;&lt;p style=&quot;margin:0px;margin-left:4px;&quot;&gt;&lt;font style=&quot;font-size: 10px;&quot;&gt;address&amp;nbsp;&lt;/font&gt;&lt;/p&gt;&lt;p style=&quot;margin:0px;margin-left:4px;&quot;&gt;&lt;font style=&quot;font-size: 10px;&quot;&gt;List&amp;lt;Screen&amp;gt;&lt;/font&gt;&lt;/p&gt;&lt;p style=&quot;margin:0px;margin-left:4px;&quot;&gt;&lt;font style=&quot;font-size: 10px;&quot;&gt;List&amp;lt;Show&amp;gt;&lt;/font&gt;&lt;/p&gt;&lt;p style=&quot;margin:0px;margin-left:4px;&quot;&gt;&lt;br&gt;&lt;/p&gt;&lt;hr size=&quot;1&quot; style=&quot;border-style:solid;&quot;&gt;&lt;p style=&quot;margin:0px;margin-left:4px;&quot;&gt;&lt;font style=&quot;font-size: 10px;&quot;&gt;// Getter setter&lt;/font&gt;&lt;/p&gt;" style="verticalAlign=top;align=left;overflow=fill;html=1;whiteSpace=wrap;" vertex="1" parent="1">
          <mxGeometry x="279" y="290" width="90" height="160" as="geometry" />
        </mxCell>
        <mxCell id="KM8NFA-T9ew2ubww94Zo-26" style="edgeStyle=orthogonalEdgeStyle;rounded=0;orthogonalLoop=1;jettySize=auto;html=1;exitX=1;exitY=0.5;exitDx=0;exitDy=0;entryX=0.5;entryY=1;entryDx=0;entryDy=0;" edge="1" parent="1" source="KM8NFA-T9ew2ubww94Zo-20" target="KM8NFA-T9ew2ubww94Zo-25">
          <mxGeometry relative="1" as="geometry" />
        </mxCell>
        <mxCell id="KM8NFA-T9ew2ubww94Zo-20" value="&lt;p style=&quot;margin:0px;margin-top:4px;text-align:center;&quot;&gt;&lt;b&gt;Screen&lt;/b&gt;&lt;/p&gt;&lt;hr size=&quot;1&quot; style=&quot;border-style:solid;&quot;&gt;&lt;p style=&quot;margin:0px;margin-left:4px;&quot;&gt;id&lt;/p&gt;&lt;p style=&quot;margin:0px;margin-left:4px;&quot;&gt;List&amp;lt;Seat&amp;gt;&lt;/p&gt;&lt;p style=&quot;margin:0px;margin-left:4px;&quot;&gt;&lt;br&gt;&lt;/p&gt;&lt;hr size=&quot;1&quot; style=&quot;border-style:solid;&quot;&gt;&lt;p style=&quot;margin:0px;margin-left:4px;&quot;&gt;&lt;font style=&quot;font-size: 10px;&quot;&gt;// Getter setter&lt;/font&gt;&lt;/p&gt;" style="verticalAlign=top;align=left;overflow=fill;html=1;whiteSpace=wrap;" vertex="1" parent="1">
          <mxGeometry x="519" y="490" width="90" height="120" as="geometry" />
        </mxCell>
        <mxCell id="KM8NFA-T9ew2ubww94Zo-24" style="edgeStyle=orthogonalEdgeStyle;rounded=0;orthogonalLoop=1;jettySize=auto;html=1;exitX=0;exitY=0.5;exitDx=0;exitDy=0;" edge="1" parent="1" source="KM8NFA-T9ew2ubww94Zo-21" target="KM8NFA-T9ew2ubww94Zo-16">
          <mxGeometry relative="1" as="geometry" />
        </mxCell>
        <mxCell id="KM8NFA-T9ew2ubww94Zo-21" value="&lt;p style=&quot;margin:0px;margin-top:4px;text-align:center;&quot;&gt;&lt;b&gt;Show&lt;/b&gt;&lt;/p&gt;&lt;hr size=&quot;1&quot; style=&quot;border-style:solid;&quot;&gt;&lt;p style=&quot;margin:0px;margin-left:4px;&quot;&gt;&lt;font style=&quot;font-size: 10px;&quot;&gt;id&lt;/font&gt;&lt;/p&gt;&lt;p style=&quot;margin:0px;margin-left:4px;&quot;&gt;&lt;span style=&quot;background-color: initial;&quot;&gt;&lt;font style=&quot;font-size: 10px;&quot;&gt;Movie&lt;/font&gt;&lt;/span&gt;&lt;/p&gt;&lt;p style=&quot;margin:0px;margin-left:4px;&quot;&gt;&lt;span style=&quot;background-color: initial;&quot;&gt;&lt;font style=&quot;font-size: 10px;&quot;&gt;Screen&lt;/font&gt;&lt;/span&gt;&lt;/p&gt;&lt;p style=&quot;margin:0px;margin-left:4px;&quot;&gt;&lt;font style=&quot;font-size: 10px;&quot;&gt;starttime&lt;/font&gt;&lt;/p&gt;&lt;p style=&quot;margin:0px;margin-left:4px;&quot;&gt;&lt;font style=&quot;font-size: 10px;&quot;&gt;List&amp;lt;Integer&amp;gt;&lt;/font&gt;&lt;/p&gt;&lt;p style=&quot;margin:0px;margin-left:4px;&quot;&gt;&lt;font style=&quot;font-size: 10px;&quot;&gt;&amp;nbsp;booksearId&lt;/font&gt;&lt;/p&gt;&lt;hr size=&quot;1&quot; style=&quot;border-style:solid;&quot;&gt;&lt;p style=&quot;margin:0px;margin-left:4px;&quot;&gt;&lt;font style=&quot;font-size: 10px;&quot;&gt;// Getter setter&lt;/font&gt;&lt;/p&gt;" style="verticalAlign=top;align=left;overflow=fill;html=1;whiteSpace=wrap;" vertex="1" parent="1">
          <mxGeometry x="339" y="600" width="100" height="150" as="geometry" />
        </mxCell>
        <mxCell id="KM8NFA-T9ew2ubww94Zo-22" style="edgeStyle=orthogonalEdgeStyle;rounded=0;orthogonalLoop=1;jettySize=auto;html=1;exitX=1;exitY=0.5;exitDx=0;exitDy=0;entryX=0.5;entryY=0;entryDx=0;entryDy=0;" edge="1" parent="1" source="KM8NFA-T9ew2ubww94Zo-19" target="KM8NFA-T9ew2ubww94Zo-20">
          <mxGeometry relative="1" as="geometry">
            <mxPoint x="555.6700000000001" y="496.68000000000006" as="targetPoint" />
          </mxGeometry>
        </mxCell>
        <mxCell id="KM8NFA-T9ew2ubww94Zo-28" style="edgeStyle=orthogonalEdgeStyle;rounded=0;orthogonalLoop=1;jettySize=auto;html=1;exitX=1;exitY=0.5;exitDx=0;exitDy=0;entryX=0.5;entryY=1;entryDx=0;entryDy=0;" edge="1" parent="1" source="KM8NFA-T9ew2ubww94Zo-25" target="KM8NFA-T9ew2ubww94Zo-27">
          <mxGeometry relative="1" as="geometry" />
        </mxCell>
        <mxCell id="KM8NFA-T9ew2ubww94Zo-25" value="&lt;p style=&quot;margin:0px;margin-top:4px;text-align:center;&quot;&gt;&lt;b&gt;&lt;font style=&quot;font-size: 12px;&quot;&gt;Seat&lt;/font&gt;&lt;/b&gt;&lt;/p&gt;&lt;hr size=&quot;1&quot; style=&quot;border-style:solid;&quot;&gt;&lt;p style=&quot;margin:0px;margin-left:4px;&quot;&gt;&lt;font style=&quot;font-size: 10px;&quot;&gt;id&lt;/font&gt;&lt;/p&gt;&lt;p style=&quot;margin:0px;margin-left:4px;&quot;&gt;&lt;font style=&quot;font-size: 10px;&quot;&gt;SeatCategory seatcategory&lt;/font&gt;&lt;/p&gt;&lt;p style=&quot;margin:0px;margin-left:4px;&quot;&gt;&lt;span style=&quot;font-size: 10px; background-color: initial;&quot;&gt;row&lt;/span&gt;&lt;br&gt;&lt;/p&gt;&lt;p style=&quot;margin:0px;margin-left:4px;&quot;&gt;&lt;span style=&quot;font-size: 10px; background-color: initial;&quot;&gt;Price&lt;/span&gt;&lt;/p&gt;&lt;p style=&quot;margin:0px;margin-left:4px;&quot;&gt;&lt;br&gt;&lt;/p&gt;&lt;hr size=&quot;1&quot; style=&quot;border-style:solid;&quot;&gt;&lt;p style=&quot;margin:0px;margin-left:4px;&quot;&gt;&lt;font style=&quot;font-size: 10px;&quot;&gt;// Getter setter&lt;/font&gt;&lt;/p&gt;" style="verticalAlign=top;align=left;overflow=fill;html=1;whiteSpace=wrap;" vertex="1" parent="1">
          <mxGeometry x="619" y="270" width="90" height="160" as="geometry" />
        </mxCell>
        <mxCell id="KM8NFA-T9ew2ubww94Zo-27" value="SeatCategory ENUM&lt;br&gt;&lt;br&gt;{&lt;br&gt;PLATINUM&lt;br&gt;&lt;div&gt;GOLD,&lt;br&gt;SILVER&lt;/div&gt;&lt;div&gt;&lt;br&gt;&lt;/div&gt;&lt;div&gt;}&lt;/div&gt;" style="whiteSpace=wrap;html=1;align=center;" vertex="1" parent="1">
          <mxGeometry x="719" y="70" width="90" height="130" as="geometry" />
        </mxCell>
        <mxCell id="KM8NFA-T9ew2ubww94Zo-30" style="edgeStyle=orthogonalEdgeStyle;rounded=0;orthogonalLoop=1;jettySize=auto;html=1;entryX=0.5;entryY=0;entryDx=0;entryDy=0;" edge="1" parent="1" source="KM8NFA-T9ew2ubww94Zo-29" target="KM8NFA-T9ew2ubww94Zo-19">
          <mxGeometry relative="1" as="geometry" />
        </mxCell>
        <mxCell id="KM8NFA-T9ew2ubww94Zo-29" value="&lt;p style=&quot;margin:0px;margin-top:4px;text-align:center;&quot;&gt;&lt;b&gt;&lt;font style=&quot;font-size: 8px;&quot;&gt;TheaterController&lt;/font&gt;&lt;/b&gt;&lt;/p&gt;&lt;hr size=&quot;1&quot; style=&quot;border-style:solid;&quot;&gt;&lt;p style=&quot;margin:0px;margin-left:4px;&quot;&gt;&lt;/p&gt;&lt;p style=&quot;margin:0px;margin-left:4px;&quot;&gt;&lt;font style=&quot;font-size: 8px;&quot;&gt;List&amp;lt;City, Theater&amp;gt; citTheaterMap&lt;/font&gt;&lt;/p&gt;&lt;p style=&quot;margin:0px;margin-left:4px;&quot;&gt;&lt;font style=&quot;font-size: 8px;&quot;&gt;List&amp;lt;Theater&amp;gt; movie&lt;/font&gt;&lt;/p&gt;&lt;p style=&quot;margin:0px;margin-left:4px;&quot;&gt;&lt;font style=&quot;font-size: 8px;&quot;&gt;// CRUD&lt;/font&gt;&lt;/p&gt;&lt;p style=&quot;margin:0px;margin-left:4px;&quot;&gt;&lt;br&gt;&lt;/p&gt;" style="verticalAlign=top;align=left;overflow=fill;html=1;whiteSpace=wrap;" vertex="1" parent="1">
          <mxGeometry x="10" y="190" width="130" height="90" as="geometry" />
        </mxCell>
        <mxCell id="KM8NFA-T9ew2ubww94Zo-34" style="edgeStyle=orthogonalEdgeStyle;rounded=0;orthogonalLoop=1;jettySize=auto;html=1;exitX=1;exitY=0.5;exitDx=0;exitDy=0;entryX=0.75;entryY=1;entryDx=0;entryDy=0;" edge="1" parent="1" source="KM8NFA-T9ew2ubww94Zo-31" target="KM8NFA-T9ew2ubww94Zo-25">
          <mxGeometry relative="1" as="geometry">
            <mxPoint x="700" y="460" as="targetPoint" />
          </mxGeometry>
        </mxCell>
        <mxCell id="KM8NFA-T9ew2ubww94Zo-35" style="edgeStyle=orthogonalEdgeStyle;rounded=0;orthogonalLoop=1;jettySize=auto;html=1;exitX=0.5;exitY=1;exitDx=0;exitDy=0;entryX=0.5;entryY=1;entryDx=0;entryDy=0;" edge="1" parent="1" source="KM8NFA-T9ew2ubww94Zo-31" target="KM8NFA-T9ew2ubww94Zo-33">
          <mxGeometry relative="1" as="geometry" />
        </mxCell>
        <mxCell id="KM8NFA-T9ew2ubww94Zo-36" style="edgeStyle=orthogonalEdgeStyle;rounded=0;orthogonalLoop=1;jettySize=auto;html=1;exitX=1;exitY=0.25;exitDx=0;exitDy=0;entryX=0.5;entryY=1;entryDx=0;entryDy=0;" edge="1" parent="1" source="KM8NFA-T9ew2ubww94Zo-31" target="KM8NFA-T9ew2ubww94Zo-21">
          <mxGeometry relative="1" as="geometry" />
        </mxCell>
        <mxCell id="KM8NFA-T9ew2ubww94Zo-31" value="&lt;p style=&quot;margin:0px;margin-top:4px;text-align:center;&quot;&gt;&lt;b&gt;Booking&lt;/b&gt;&lt;/p&gt;&lt;hr size=&quot;1&quot; style=&quot;border-style:solid;&quot;&gt;&lt;p style=&quot;margin:0px;margin-left:4px;&quot;&gt;&lt;font style=&quot;font-size: 10px;&quot;&gt;id&lt;/font&gt;&lt;/p&gt;&lt;p style=&quot;margin:0px;margin-left:4px;&quot;&gt;&lt;span style=&quot;font-size: 10px; background-color: initial;&quot;&gt;Show&lt;/span&gt;&lt;/p&gt;&lt;p style=&quot;margin:0px;margin-left:4px;&quot;&gt;&lt;span style=&quot;font-size: 10px; background-color: initial;&quot;&gt;List&amp;lt;Seat&amp;gt;&amp;nbsp;&lt;/span&gt;&lt;span style=&quot;font-size: 10px; background-color: initial;&quot;&gt;seats&lt;/span&gt;&lt;/p&gt;&lt;p style=&quot;margin:0px;margin-left:4px;&quot;&gt;&lt;span style=&quot;font-size: 10px;&quot;&gt;Payment payment&lt;/span&gt;&lt;/p&gt;&lt;hr size=&quot;1&quot; style=&quot;border-style:solid;&quot;&gt;&lt;p style=&quot;margin:0px;margin-left:4px;&quot;&gt;&lt;font style=&quot;font-size: 10px;&quot;&gt;// Getter setter&lt;/font&gt;&lt;/p&gt;" style="verticalAlign=top;align=left;overflow=fill;html=1;whiteSpace=wrap;" vertex="1" parent="1">
          <mxGeometry x="200" y="740" width="100" height="150" as="geometry" />
        </mxCell>
        <mxCell id="KM8NFA-T9ew2ubww94Zo-33" value="&lt;p style=&quot;margin:0px;margin-top:4px;text-align:center;&quot;&gt;&lt;b&gt;Payment&lt;/b&gt;&lt;/p&gt;&lt;hr size=&quot;1&quot; style=&quot;border-style:solid;&quot;&gt;&lt;p style=&quot;margin:0px;margin-left:4px;&quot;&gt;&lt;br&gt;&lt;/p&gt;&lt;p style=&quot;margin:0px;margin-left:4px;&quot;&gt;&lt;font style=&quot;font-size: 10px;&quot;&gt;// Getter setter&lt;/font&gt;&lt;/p&gt;" style="verticalAlign=top;align=left;overflow=fill;html=1;whiteSpace=wrap;" vertex="1" parent="1">
          <mxGeometry x="390" y="830" width="100" height="70" as="geometry" />
        </mxCell>
      </root>
    </mxGraphModel>
  </diagram>
</mxfile>
